
    <svg id="레이어_1" data-name="레이어 1" xmlns="http://www.w3.org/2000/svg" viewBox="0 0 206.16 59.68"><defs><style>.cls-1{fill:#fff;}</style></defs><path class="cls-1" d="M28,3a2.76,2.76,0,0,1,.32.89,11.59,11.59,0,0,1,0,1.16V23.44c0,1.53-.41,2.42-1.25,2.68a5.13,5.13,0,0,1-1.59.2A5.59,5.59,0,0,1,24,26.16a2.73,2.73,0,0,1-.87-.4,1.5,1.5,0,0,1-.46-.66,6.67,6.67,0,0,1-.16-1.72V12.29c-.56.68-1.36,1.77-2.42,3.26s-1.73,2.42-2,2.8-.48.63-.6.77a2.93,2.93,0,0,1-.81.6,2.75,2.75,0,0,1-2.74,0,3.08,3.08,0,0,1-.88-.68l-.27-.36c-.44-.55-1.31-1.73-2.61-3.52s-2-2.77-2.12-2.9V23.44a10.54,10.54,0,0,1,0,1.15,2.42,2.42,0,0,1-.31.84c-.33.6-1.19.89-2.58.89S2.87,26,2.54,25.43a2.25,2.25,0,0,1-.31-.86,9.06,9.06,0,0,1,0-1.19V5a8.47,8.47,0,0,1,0-1.15A2.48,2.48,0,0,1,2.54,3c.33-.58,1.19-.86,2.58-.86a5,5,0,0,1,1.54.21,2.08,2.08,0,0,1,.85.45L7.7,3l7.52,9.86Q20.85,5.41,22.73,3c.38-.6,1.26-.89,2.67-.89S27.65,2.42,28,3Z"/><path class="cls-1" d="M41.1,5a10.54,10.54,0,0,1,0-1.15A2.53,2.53,0,0,1,41.47,3q.45-.9,2.58-.9c1.54,0,2.46.41,2.74,1.23A6.53,6.53,0,0,1,47,5v18.4a10.22,10.22,0,0,1-.05,1.16,2.66,2.66,0,0,1-.31.86c-.31.6-1.17.9-2.59.9s-2.45-.42-2.71-1.26a5.28,5.28,0,0,1-.2-1.69Z"/><path class="cls-1" d="M75.41,3.1a1.57,1.57,0,0,1,.94-.77,5.08,5.08,0,0,1,1.57-.2,5.82,5.82,0,0,1,1.53.16,2.56,2.56,0,0,1,.86.4,1.34,1.34,0,0,1,.41.69,5.32,5.32,0,0,1,.2,1.69V23.44a10.22,10.22,0,0,1,0,1.16,2.66,2.66,0,0,1-.31.86c-.31.6-1.17.9-2.59.9a5.46,5.46,0,0,1-1.78-.2,1.9,1.9,0,0,1-.83-.63q-7.45-9.93-9.8-13V23.44a8.28,8.28,0,0,1,0,1.16,2.66,2.66,0,0,1-.31.86q-.47.9-2.58.9t-2.52-.9a2.5,2.5,0,0,1-.31-.89,8.73,8.73,0,0,1,0-1.16V4.94a4.06,4.06,0,0,1,.31-1.84A1.57,1.57,0,0,1,61,2.33a5.28,5.28,0,0,1,1.63-.2,5.5,5.5,0,0,1,1.57.18,2.15,2.15,0,0,1,.81.41,10.26,10.26,0,0,1,.76.86q7,9.51,9.33,12.55V4.94A4,4,0,0,1,75.41,3.1Z"/><path class="cls-1" d="M93.7,5a8.47,8.47,0,0,1,0-1.15A2.48,2.48,0,0,1,94.06,3q.47-.9,2.58-.9c1.55,0,2.46.41,2.75,1.23A6.62,6.62,0,0,1,99.55,5v18.4a10.85,10.85,0,0,1,0,1.16,2.71,2.71,0,0,1-.32.86q-.47.9-2.58.9c-1.55,0-2.45-.42-2.72-1.26a5.34,5.34,0,0,1-.19-1.69Z"/><path class="cls-1" d="M138.12,3a2.71,2.71,0,0,1,.31.89,11,11,0,0,1,0,1.16V23.44c0,1.53-.42,2.42-1.26,2.68a5.13,5.13,0,0,1-1.59.2,5.64,5.64,0,0,1-1.52-.16,2.77,2.77,0,0,1-.86-.4,1.43,1.43,0,0,1-.46-.66,6.58,6.58,0,0,1-.17-1.72V12.29c-.55.68-1.36,1.77-2.41,3.26s-1.74,2.42-2,2.8l-.6.77a2.93,2.93,0,0,1-.81.6,2.77,2.77,0,0,1-2.75,0,3.08,3.08,0,0,1-.88-.68l-.26-.36c-.44-.55-1.31-1.73-2.61-3.52s-2-2.77-2.12-2.9V23.44a10.54,10.54,0,0,1,0,1.15,2.46,2.46,0,0,1-.32.84c-.33.6-1.19.89-2.58.89S113,26,112.7,25.43a2.29,2.29,0,0,1-.32-.86,11.27,11.27,0,0,1,0-1.19V5a10.54,10.54,0,0,1,0-1.15A2.53,2.53,0,0,1,112.7,3c.33-.58,1.19-.86,2.58-.86a5,5,0,0,1,1.54.21,2,2,0,0,1,.84.45l.2.2,7.51,9.86Q131,5.41,132.89,3c.37-.6,1.26-.89,2.66-.89S137.81,2.42,138.12,3Z"/><path class="cls-1" d="M165.26,3.82l8.94,18.46a4.42,4.42,0,0,1,.56,1.69c0,.8-.64,1.52-1.92,2.15a4.3,4.3,0,0,1-1.77.57,1.75,1.75,0,0,1-1.06-.3,2,2,0,0,1-.6-.63q-.18-.33-.51-1l-1.72-3.58H158l-1.72,3.58c-.22.44-.39.76-.52,1a2.22,2.22,0,0,1-.59.61,1.71,1.71,0,0,1-1.06.31,4.25,4.25,0,0,1-1.77-.56c-1.28-.62-1.92-1.32-1.92-2.12a4.42,4.42,0,0,1,.56-1.69l8.94-18.5A2.83,2.83,0,0,1,161,2.56a2.91,2.91,0,0,1,1.57-.47A2.82,2.82,0,0,1,165.26,3.82Zm-2.68,7.94-2.19,4.53h4.41Z"/><path class="cls-1" d="M192.57,21.46h9a3.69,3.69,0,0,1,1.59.25,1.23,1.23,0,0,1,.66.77,4.93,4.93,0,0,1,.17,1.41,4.88,4.88,0,0,1-.17,1.41,1.19,1.19,0,0,1-.56.73,3.76,3.76,0,0,1-1.72.33H189.62c-1.54,0-2.45-.42-2.71-1.26a5,5,0,0,1-.2-1.69V5a8.47,8.47,0,0,1,0-1.15,2.48,2.48,0,0,1,.31-.87q.47-.9,2.58-.9c1.55,0,2.46.41,2.75,1.23A6.53,6.53,0,0,1,192.57,5Z"/><path class="cls-1" d="M13.9,43.12H24.69a2.1,2.1,0,0,1,.91.14.74.74,0,0,1,.39.46,2.92,2.92,0,0,1,.1.81,2.87,2.87,0,0,1-.1.81.67.67,0,0,1-.33.41,2.19,2.19,0,0,1-1,.18H21v9.76a5.28,5.28,0,0,1,0,.66,1.56,1.56,0,0,1-.18.49.84.84,0,0,1-.51.4,3.24,3.24,0,0,1-1,.12,3.12,3.12,0,0,1-1-.12.84.84,0,0,1-.51-.4,1.74,1.74,0,0,1-.17-.5,5.47,5.47,0,0,1,0-.67V45.93H13.88a2.11,2.11,0,0,1-.91-.15.76.76,0,0,1-.39-.45,3,3,0,0,1-.09-.82,2.89,2.89,0,0,1,.09-.8.72.72,0,0,1,.33-.42A2.26,2.26,0,0,1,13.9,43.12Z"/><path class="cls-1" d="M35.63,53.92h6a5.58,5.58,0,0,1,.67,0,1.47,1.47,0,0,1,.51.19c.35.18.52.68.52,1.51s-.24,1.43-.71,1.59a3.17,3.17,0,0,1-1,.12H33.9c-.9,0-1.43-.25-1.59-.74a3.36,3.36,0,0,1-.11-1V44.84a1.86,1.86,0,0,1,.37-1.35A2.06,2.06,0,0,1,34,43.14h7.65l.67,0a1.71,1.71,0,0,1,.51.19c.35.18.52.68.52,1.51s-.24,1.44-.71,1.59a3.17,3.17,0,0,1-1,.12h-6v2h3.84a5.47,5.47,0,0,1,.67,0,1.7,1.7,0,0,1,.52.18c.34.18.52.69.52,1.52s-.25,1.43-.74,1.59a3.51,3.51,0,0,1-1,.11h-3.8Z"/><path class="cls-1" d="M58.5,53.63l.35-.25a2.31,2.31,0,0,1,.93-.39c.4,0,.84.36,1.3,1.09a2.19,2.19,0,0,1,.43,1.08.94.94,0,0,1-.26.68,3.28,3.28,0,0,1-.61.49l-.67.41a8.51,8.51,0,0,1-1.31.5,6.29,6.29,0,0,1-1.91.31,7.55,7.55,0,0,1-1.87-.24,8.57,8.57,0,0,1-3.73-2.21A6.42,6.42,0,0,1,49.84,53a7.54,7.54,0,0,1-.51-2.8,7.13,7.13,0,0,1,.5-2.75,6.32,6.32,0,0,1,1.29-2,7.26,7.26,0,0,1,1.8-1.35,7.81,7.81,0,0,1,3.82-1,6.34,6.34,0,0,1,1.85.28,7,7,0,0,1,1.43.57l.46.28.55.34a1.2,1.2,0,0,1,.5.93,1.85,1.85,0,0,1-.41,1.07c-.5.7-1,1.05-1.36,1.05a2,2,0,0,1-1-.43,3.33,3.33,0,0,0-2.17-.66,4.24,4.24,0,0,0-2.48.88,3.19,3.19,0,0,0-1,1.2,4.14,4.14,0,0,0,0,3.51,3.29,3.29,0,0,0,1,1.22,4.16,4.16,0,0,0,2.46.86,3.88,3.88,0,0,0,1.14-.16A2.59,2.59,0,0,0,58.5,53.63Z"/><path class="cls-1" d="M76.62,43.66a.9.9,0,0,1,.53-.41,3,3,0,0,1,.93-.11,3.53,3.53,0,0,1,.89.09,1.55,1.55,0,0,1,.5.24.92.92,0,0,1,.28.38,4.17,4.17,0,0,1,.09,1V55.63a5.47,5.47,0,0,1,0,.67,1.57,1.57,0,0,1-.18.51c-.18.35-.69.53-1.51.53s-1.44-.24-1.59-.72a3.17,3.17,0,0,1-.12-1V51.67H71.27v4a5.47,5.47,0,0,1,0,.67,1.4,1.4,0,0,1-.19.51c-.18.35-.68.53-1.51.53s-1.43-.24-1.59-.72a3.17,3.17,0,0,1-.12-1V44.84a5.58,5.58,0,0,1,0-.67,1.47,1.47,0,0,1,.19-.51c.18-.35.68-.52,1.51-.52s1.44.24,1.61.71a3.64,3.64,0,0,1,.1,1v4h5.14v-4a5.58,5.58,0,0,1,0-.67A1.65,1.65,0,0,1,76.62,43.66Z"/><path class="cls-1" d="M95.62,43.73a1,1,0,0,1,.56-.46,3,3,0,0,1,.92-.12,3.52,3.52,0,0,1,.89.1,1.52,1.52,0,0,1,.51.24.76.76,0,0,1,.24.4,3,3,0,0,1,.11,1V55.65c0,.31,0,.54,0,.68a1.66,1.66,0,0,1-.19.5c-.18.35-.68.53-1.51.53a3.08,3.08,0,0,1-1-.12,1.1,1.1,0,0,1-.48-.37q-4.36-5.82-5.75-7.6v6.38a5.43,5.43,0,0,1,0,.68,1.61,1.61,0,0,1-.18.5c-.18.35-.69.53-1.51.53s-1.3-.18-1.48-.53a1.61,1.61,0,0,1-.18-.52,5.77,5.77,0,0,1,0-.68V44.8a2.37,2.37,0,0,1,.18-1.07,1,1,0,0,1,.56-.46,3.1,3.1,0,0,1,.95-.12,3.25,3.25,0,0,1,.92.11,1.19,1.19,0,0,1,.47.24A6.09,6.09,0,0,1,90,44q4.09,5.57,5.47,7.35V44.8A2.37,2.37,0,0,1,95.62,43.73Z"/><path class="cls-1" d="M112.12,43a7.15,7.15,0,0,1,7.1,7.23,7.44,7.44,0,0,1-2,5.24,6.54,6.54,0,0,1-5,2.16,6.67,6.67,0,0,1-5-2.14,7,7,0,0,1-2.07-5.08,7.72,7.72,0,0,1,.58-3A7.07,7.07,0,0,1,107.29,45a7.36,7.36,0,0,1,2.23-1.5A6.55,6.55,0,0,1,112.12,43Zm-3.53,7.32a3.74,3.74,0,0,0,1.12,2.8,3.45,3.45,0,0,0,5,0,4.14,4.14,0,0,0,0-5.65,3.51,3.51,0,0,0-2.49-1.06,3.45,3.45,0,0,0-2.48,1.07A3.74,3.74,0,0,0,108.59,50.28Z"/><path class="cls-1" d="M129,54.49h5.28a2.15,2.15,0,0,1,.93.14.78.78,0,0,1,.39.46,3,3,0,0,1,.1.82,3.08,3.08,0,0,1-.1.83.72.72,0,0,1-.33.42,2.18,2.18,0,0,1-1,.2h-7c-.91,0-1.44-.25-1.59-.74a3,3,0,0,1-.12-1V44.84a5.58,5.58,0,0,1,0-.67,1.65,1.65,0,0,1,.18-.51c.18-.35.69-.52,1.52-.52s1.44.24,1.61.71a4.17,4.17,0,0,1,.09,1Z"/><path class="cls-1" d="M148.63,43a7.15,7.15,0,0,1,7.1,7.23,7.44,7.44,0,0,1-2,5.24,6.54,6.54,0,0,1-5,2.16,6.67,6.67,0,0,1-5-2.14,7,7,0,0,1-2.07-5.08,7.72,7.72,0,0,1,.58-3A7.07,7.07,0,0,1,143.8,45,7.36,7.36,0,0,1,146,43.5,6.59,6.59,0,0,1,148.63,43Zm-3.53,7.32a3.7,3.7,0,0,0,1.12,2.8,3.48,3.48,0,0,0,2.49,1.07,3.52,3.52,0,0,0,2.49-1,4.16,4.16,0,0,0,0-5.65,3.55,3.55,0,0,0-2.5-1.06,3.45,3.45,0,0,0-2.48,1.07A3.74,3.74,0,0,0,145.1,50.28Z"/><path class="cls-1" d="M169.45,48.78h3.42c.69,0,1.12.21,1.28.54a2.57,2.57,0,0,1,.19,1.09v4.27a1.69,1.69,0,0,1-.54,1.18,6.5,6.5,0,0,1-4.89,1.69,6.84,6.84,0,0,1-5-2.18,7.28,7.28,0,0,1-2.13-5.27A6.81,6.81,0,0,1,163.92,45a7.16,7.16,0,0,1,9.45-.55,1.07,1.07,0,0,1,.52.86,2,2,0,0,1-.44,1.1q-.76,1-1.38,1a2.55,2.55,0,0,1-1.18-.53,3.52,3.52,0,0,0-1.94-.53,3.74,3.74,0,0,0-2.62,1,3.46,3.46,0,0,0-1.15,2.71,3.88,3.88,0,0,0,1.17,2.85A3.59,3.59,0,0,0,169,54.1a5.09,5.09,0,0,0,1.92-.35V51.63h-1.54a1.76,1.76,0,0,1-.85-.15.74.74,0,0,1-.33-.46,3.44,3.44,0,0,1-.08-.81,3.08,3.08,0,0,1,.09-.83.61.61,0,0,1,.32-.42A2,2,0,0,1,169.45,48.78Z"/><path class="cls-1" d="M192.23,43.41c.63.44,1,.86,1,1.28a2.11,2.11,0,0,1-.45,1L188.54,52v3.71a5.47,5.47,0,0,1,0,.67,1.57,1.57,0,0,1-.18.51.86.86,0,0,1-.53.41,3.25,3.25,0,0,1-1,.12,3.34,3.34,0,0,1-1-.12.85.85,0,0,1-.52-.42,1.7,1.7,0,0,1-.18-.52,5.73,5.73,0,0,1,0-.69V52l-4.19-6.26a2.11,2.11,0,0,1-.45-1c0-.42.28-.81.85-1.2a2.78,2.78,0,0,1,1.23-.57.93.93,0,0,1,.58.16,2.69,2.69,0,0,1,.7.79l3,4.81,3-4.81a2.81,2.81,0,0,1,.64-.76,1,1,0,0,1,.63-.19A2.56,2.56,0,0,1,192.23,43.41Z"/></svg>